<svg width="24" height="24" viewBox="0 0 24 24" fill="none" xmlns="http://www.w3.org/2000/svg">
<path d="M11.8631 14.8636C13.1685 14.8636 14.2268 13.8054 14.2268 12.5C14.2268 11.1946 13.1685 10.1364 11.8631 10.1364C10.5577 10.1364 9.49951 11.1946 9.49951 12.5C9.49951 13.8054 10.5577 14.8636 11.8631 14.8636Z" fill="#D33E23"/>
<path d="M20.6916 12.2991C19.9966 10.5013 18.79 8.94664 17.221 7.82714C15.6521 6.70765 13.7894 6.07243 11.8634 6C9.93733 6.07243 8.07471 6.70765 6.50573 7.82714C4.93676 8.94664 3.73021 10.5013 3.0352 12.2991C2.98827 12.4289 2.98827 12.5711 3.0352 12.7009C3.73021 14.4987 4.93676 16.0534 6.50573 17.1729C8.07471 18.2924 9.93733 18.9276 11.8634 19C13.7894 18.9276 15.6521 18.2924 17.221 17.1729C18.79 16.0534 19.9966 14.4987 20.6916 12.7009C20.7385 12.5711 20.7385 12.4289 20.6916 12.2991ZM11.8634 16.3409C11.1037 16.3409 10.3611 16.1156 9.72949 15.6936C9.09786 15.2716 8.60556 14.6717 8.31485 13.9699C8.02414 13.268 7.94808 12.4957 8.09628 11.7507C8.24448 11.0056 8.61029 10.3212 9.14745 9.78407C9.68461 9.24691 10.369 8.8811 11.1141 8.73289C11.8591 8.58469 12.6314 8.66075 13.3332 8.95146C14.0351 9.24217 14.6349 9.73447 15.057 10.3661C15.479 10.9977 15.7043 11.7403 15.7043 12.5C15.7027 13.5182 15.2976 14.4942 14.5776 15.2142C13.8576 15.9342 12.8816 16.3393 11.8634 16.3409Z" fill="#D33E23"/>
<path d="M20.5714 19.4286H18.4286C18.3071 19.4286 18.2054 19.3875 18.1232 19.3054C18.0411 19.2232 18 19.1214 18 19C18 18.8786 18.0411 18.7768 18.1232 18.6946C18.2054 18.6125 18.3071 18.5714 18.4286 18.5714H20.5714V16.4286C20.5714 16.3071 20.6125 16.2054 20.6946 16.1232C20.7768 16.0411 20.8786 16 21 16C21.1214 16 21.2232 16.0411 21.3054 16.1232C21.3875 16.2054 21.4286 16.3071 21.4286 16.4286V18.5714H23.5714C23.6929 18.5714 23.7946 18.6125 23.8768 18.6946C23.9589 18.7768 24 18.8786 24 19C24 19.1214 23.9589 19.2232 23.8768 19.3054C23.7946 19.3875 23.6929 19.4286 23.5714 19.4286H21.4286V21.5714C21.4286 21.6929 21.3875 21.7946 21.3054 21.8768C21.2232 21.9589 21.1214 22 21 22C20.8786 22 20.7768 21.9589 20.6946 21.8768C20.6125 21.7946 20.5714 21.6929 20.5714 21.5714V19.4286Z" fill="#D33E23"/>
</svg>
