<svg width="24" height="24" viewBox="0 0 24 24" fill="none" xmlns="http://www.w3.org/2000/svg">
<g clip-path="url(#clip0_487_226)">
<path d="M4.5 12C4.5 16.1422 7.85775 19.5 12 19.5C16.1422 19.5 19.5 16.1422 19.5 12C19.5 7.85775 16.1422 4.5 12 4.5C7.85775 4.5 4.5 7.85775 4.5 12Z" stroke="#D33E23" stroke-width="1.5" stroke-linecap="round" stroke-linejoin="round"/>
<path d="M12.7502 4.53748C12.7502 4.53748 15.0002 7.49998 15.0002 12C15.0002 16.5 12.7502 19.4625 12.7502 19.4625M11.2502 19.4625C11.2502 19.4625 9.00016 16.5 9.00016 12C9.00016 7.49998 11.2502 4.53748 11.2502 4.53748M4.97266 14.625H19.0277M4.97266 9.37498H19.0277" stroke="#D33E23" stroke-width="1.5" stroke-linecap="round" stroke-linejoin="round"/>
</g>
<path d="M20.5714 19.4286H18.4286C18.3071 19.4286 18.2054 19.3875 18.1232 19.3054C18.0411 19.2232 18 19.1214 18 19C18 18.8786 18.0411 18.7768 18.1232 18.6946C18.2054 18.6125 18.3071 18.5714 18.4286 18.5714H20.5714V16.4286C20.5714 16.3071 20.6125 16.2054 20.6946 16.1232C20.7768 16.0411 20.8786 16 21 16C21.1214 16 21.2232 16.0411 21.3054 16.1232C21.3875 16.2054 21.4286 16.3071 21.4286 16.4286V18.5714H23.5714C23.6929 18.5714 23.7946 18.6125 23.8768 18.6946C23.9589 18.7768 24 18.8786 24 19C24 19.1214 23.9589 19.2232 23.8768 19.3054C23.7946 19.3875 23.6929 19.4286 23.5714 19.4286H21.4286V21.5714C21.4286 21.6929 21.3875 21.7946 21.3054 21.8768C21.2232 21.9589 21.1214 22 21 22C20.8786 22 20.7768 21.9589 20.6946 21.8768C20.6125 21.7946 20.5714 21.6929 20.5714 21.5714V19.4286Z" fill="#D33E23"/>
<defs>
<clipPath id="clip0_487_226">
<rect width="18" height="18" fill="white" transform="translate(3 3)"/>
</clipPath>
</defs>
</svg>
