<svg width="24" height="24" viewBox="0 0 24 24" fill="none" xmlns="http://www.w3.org/2000/svg">
<path d="M13.472 3.19915C13.6063 3.30696 13.7225 3.43069 13.8299 3.56427C14.0671 3.83422 14.4396 3.98681 14.7908 4.04141C14.9223 4.04743 15.0528 4.04759 15.1832 4.02885C15.5167 3.98259 15.8326 4.02415 16.1124 4.2172C16.3659 4.41772 16.4899 4.59993 16.5664 4.90848C16.6712 5.32831 16.8808 5.66191 17.256 5.89974C17.3922 5.97145 17.5322 6.02454 17.6785 6.07239C17.9339 6.16249 18.1573 6.36519 18.2872 6.59985C18.4203 6.88298 18.4449 7.1605 18.3488 7.45986C18.2376 7.80777 18.2982 8.16153 18.4505 8.48948C18.5497 8.67499 18.683 8.81545 18.8317 8.96348C19.0684 9.20375 19.1436 9.46583 19.1429 9.79416C19.1383 10.0858 19.0433 10.3279 18.8367 10.543C18.8071 10.5707 18.7774 10.5984 18.7477 10.6261C18.4728 10.9134 18.4131 11.2988 18.4174 11.6761C18.4216 11.789 18.4425 11.8832 18.4759 11.9911C18.5788 12.3293 18.5617 12.6645 18.3996 12.9815C18.2533 13.2219 18.0523 13.3631 17.7945 13.468C17.4114 13.6243 17.0839 13.9011 16.9185 14.2843C16.8737 14.4146 16.8578 14.5528 16.8361 14.6883C16.7834 15.0031 16.6444 15.2808 16.3759 15.472C16.0379 15.6928 15.7582 15.7 15.3615 15.6895C14.8964 15.6827 14.529 15.7921 14.1875 16.1107C14.13 16.1709 14.0802 16.2333 14.03 16.2995C13.7405 16.6693 13.2134 16.7793 12.7688 16.8551C12.2417 16.9215 11.7061 16.9017 11.268 16.5729C11.2278 16.5393 11.1875 16.5056 11.1473 16.4719C10.874 16.2676 10.5777 16.186 10.2402 16.1865C10.2143 16.1865 10.1885 16.1864 10.1619 16.1864C9.9747 16.189 9.82101 16.2188 9.64223 16.2736C9.34929 16.3505 9.05983 16.2912 8.79374 16.158C8.49489 15.9831 8.35046 15.7592 8.23155 15.4439C8.07236 15.0355 7.79365 14.767 7.39845 14.5784C7.25449 14.519 7.10201 14.4903 6.95022 14.4572C6.61647 14.3833 6.35253 14.2293 6.16438 13.9373C6.01602 13.6661 5.97062 13.3584 6.04843 13.0568C6.07551 12.6287 5.97912 12.2265 5.68787 11.8969C5.58673 11.7926 5.47762 11.6976 5.36864 11.6014C5.15631 11.4102 5.02095 11.1737 5.0004 10.8884C4.99406 10.5749 5.0628 10.3494 5.24005 10.0883C5.46043 9.75205 5.53529 9.42794 5.47751 9.03352C5.43793 8.8609 5.36756 8.7044 5.29524 8.54304C5.16644 8.23888 5.19604 7.95973 5.30566 7.65281C5.42422 7.38682 5.65065 7.22334 5.89594 7.08003C6.2395 6.86728 6.46584 6.59648 6.57736 6.20737C6.60466 6.08876 6.6135 5.97224 6.61866 5.85108C6.63152 5.56215 6.70772 5.32515 6.88709 5.09614C6.90544 5.07024 6.92378 5.04434 6.94268 5.01766C7.13056 4.80335 7.41684 4.6961 7.69617 4.67627C7.71589 4.67498 7.73561 4.67369 7.75593 4.67236C8.17368 4.63598 8.55189 4.47155 8.84397 4.16697C8.94059 4.04671 9.02082 3.91853 9.09811 3.78557C9.24235 3.54739 9.45801 3.37852 9.73195 3.29879C9.99998 3.24369 10.2755 3.27721 10.5213 3.38848C10.5794 3.41131 10.6376 3.4338 10.696 3.45597C10.7227 3.46643 10.7493 3.47688 10.7768 3.48766C11.1301 3.61218 11.5305 3.55549 11.8682 3.41359C12.018 3.33928 12.155 3.2505 12.2923 3.15619C12.6469 2.92219 13.1239 2.96308 13.472 3.19915ZM10.4451 5.14636C10.4194 5.154 10.4194 5.154 10.3931 5.1618C9.8978 5.31128 9.4113 5.54264 8.99645 5.84951C8.98192 5.86008 8.96739 5.87064 8.95241 5.88153C7.85813 6.68191 7.14133 7.85531 6.93792 9.18949C6.86479 9.78414 6.87855 10.4141 7.01416 10.9976C7.01878 11.0185 7.02341 11.0394 7.02817 11.0609C7.18796 11.7716 7.52652 12.4766 8.00531 13.0317C8.02698 13.0577 8.04862 13.0837 8.07023 13.1098C8.92381 14.1323 10.1347 14.7541 11.4616 14.9152C11.5359 14.9193 11.6102 14.9204 11.6846 14.9211C11.7057 14.9214 11.7269 14.9216 11.7487 14.9219C13.203 14.9353 14.4833 14.5067 15.5533 13.5089C16.2394 12.8411 16.72 12.0128 16.959 11.0918C16.9651 11.068 16.9713 11.0443 16.9777 11.0198C17.0659 10.6613 17.087 10.3115 17.0861 9.94433C17.086 9.8726 17.0866 9.80089 17.0873 9.72916C17.0886 9.35153 17.0458 8.99112 16.9447 8.62602C16.9393 8.60652 16.934 8.58701 16.9285 8.56692C16.7814 8.04694 16.5628 7.54253 16.2394 7.10514C16.222 7.08112 16.2047 7.0571 16.1867 7.03236C15.9335 6.69001 15.6564 6.37374 15.3209 6.10839C15.2752 6.07191 15.2302 6.03466 15.1861 5.99636C14.5234 5.42792 13.6383 5.10883 12.7831 4.97057C12.7357 4.96212 12.7357 4.96212 12.6872 4.9535C11.9451 4.83936 11.1591 4.9263 10.4451 5.14636Z" fill="#D93E24"/>
<path d="M17.0552 15.6C17.0972 15.6662 17.1191 15.7139 17.1432 15.7877C17.1544 15.8217 17.1544 15.8217 17.1658 15.8563C17.1778 15.8934 17.1778 15.8934 17.1901 15.9313C17.1986 15.9573 17.2072 15.9833 17.216 16.0101C17.2442 16.0962 17.2723 16.1824 17.3005 16.2686C17.3202 16.3289 17.34 16.3891 17.3597 16.4494C17.4006 16.574 17.4415 16.6986 17.4823 16.8233C17.5645 17.0743 17.6473 17.3252 17.7302 17.576C17.7559 17.6536 17.7815 17.7313 17.8072 17.809C17.8897 18.0588 17.9725 18.3084 18.0562 18.5577C18.0641 18.5813 18.072 18.6049 18.0802 18.6292C18.1172 18.7396 18.1543 18.8501 18.1916 18.9604C18.259 19.1608 18.3228 19.3602 18.3714 19.5668C16.0868 18.7769 16.0868 18.7769 15.7878 18.6199C15.7798 18.6442 15.7798 18.6442 15.7717 18.6691C15.7256 18.7801 15.6662 18.8811 15.6065 18.9846C15.5934 19.0073 15.5804 19.03 15.567 19.0533C15.4632 19.233 15.3555 19.4096 15.2461 19.5855C15.1365 19.7619 15.0302 19.9405 14.9233 20.1187C14.8854 20.1819 14.8473 20.2451 14.8093 20.3082C14.6708 20.5378 14.5333 20.768 14.3985 21C14.3397 20.9074 14.3094 20.8108 14.2753 20.7065C14.268 20.6846 14.2608 20.6627 14.2533 20.6402C14.2295 20.5682 14.2058 20.4962 14.1821 20.4241C14.1656 20.3739 14.149 20.3237 14.1324 20.2735C14.0906 20.1469 14.049 20.0202 14.0074 19.8935C13.9859 19.8283 13.9645 19.7631 13.943 19.6979C13.7689 19.1688 13.5991 18.6384 13.4312 18.1071C13.3861 17.9645 13.3408 17.8219 13.2955 17.6794C13.2822 17.6374 13.2689 17.5954 13.2556 17.5534C13.2466 17.5253 13.2377 17.4972 13.2285 17.4682C13.2427 17.4646 13.2569 17.4611 13.2716 17.4574C13.844 17.3104 14.2302 17.1018 14.6287 16.6408C14.7413 16.5136 14.848 16.4218 15.0078 16.3677C15.0319 16.3593 15.0561 16.3509 15.0809 16.3422C15.1391 16.3412 15.1974 16.3418 15.2556 16.3433C15.2914 16.3438 15.3271 16.3444 15.3629 16.3449C15.4187 16.3458 15.4744 16.3469 15.5302 16.3485C16.0044 16.361 16.4519 16.2548 16.8115 15.9071C16.9486 15.7656 16.9486 15.7656 17.0552 15.6Z" fill="#D93E24"/>
<path d="M7.36936 15.0857C7.62298 15.2525 7.73186 15.4539 7.85424 15.7414C7.959 15.9852 8.06416 16.1855 8.24682 16.3737C8.26146 16.39 8.2761 16.4063 8.29119 16.4231C8.54791 16.691 8.91706 16.85 9.27051 16.8731C9.30412 16.8757 9.30412 16.8757 9.3384 16.8783C9.49746 16.8846 9.63451 16.8643 9.78693 16.8206C10.0503 16.7465 10.3695 16.7006 10.6233 16.8327C10.7474 16.9151 10.8652 17.0067 10.9814 17.1016C11.0435 17.1501 11.1077 17.1953 11.1717 17.2411C10.9863 17.8425 10.7997 18.4433 10.6115 19.0436C10.5858 19.1258 10.56 19.2079 10.5343 19.29C10.4649 19.5117 10.3954 19.7334 10.3257 19.9549C10.2876 20.0759 10.2497 20.1969 10.212 20.318C10.1873 20.3972 10.1625 20.4763 10.1376 20.5554C10.1259 20.5928 10.1142 20.6302 10.1026 20.6676C10.0867 20.7188 10.0706 20.7699 10.0545 20.8211C10.0454 20.85 10.0364 20.879 10.0271 20.9088C10.0017 20.9737 10.0017 20.9737 9.95298 21C9.93758 20.9725 9.92219 20.9451 9.90633 20.9168C9.72301 20.5911 9.53395 20.2695 9.34364 19.9486C9.28722 19.8533 9.23086 19.758 9.17454 19.6627C9.16071 19.6393 9.14688 19.6159 9.13263 19.5918C9.00656 19.378 8.88206 19.1633 8.75801 18.9482C8.74358 18.9232 8.72916 18.8982 8.7143 18.8725C8.70166 18.8506 8.68903 18.8286 8.67601 18.806C8.63153 18.7305 8.58557 18.656 8.5393 18.5817C8.18152 18.7081 7.82672 18.842 7.47295 18.9809C7.423 19.0005 7.37304 19.02 7.32307 19.0395C7.11195 19.1221 6.90092 19.205 6.69003 19.2882C6.63241 19.311 6.57479 19.3337 6.51716 19.3564C6.44796 19.3837 6.37879 19.411 6.30965 19.4385C6.2791 19.4506 6.24855 19.4626 6.21799 19.4747C6.19184 19.4851 6.16569 19.4954 6.13875 19.5061C6.07756 19.528 6.07756 19.528 6.02881 19.528C6.06989 19.2968 6.1402 19.0766 6.20895 18.8538C6.22217 18.8106 6.23538 18.7675 6.24858 18.7243C6.27652 18.6331 6.30453 18.5418 6.33259 18.4506C6.37638 18.3082 6.42003 18.1658 6.46364 18.0234C6.47816 17.976 6.49267 17.9286 6.50719 17.8812C6.51432 17.8579 6.52146 17.8346 6.52881 17.8106C6.55031 17.7404 6.57182 17.6703 6.59333 17.6001C6.69756 17.2601 6.80083 16.9197 6.90322 16.5791C7.00714 16.2336 7.11221 15.8886 7.21855 15.5441C7.2249 15.5235 7.23124 15.5029 7.23778 15.4816C7.25535 15.4246 7.27298 15.3676 7.29063 15.3107C7.30058 15.2785 7.31053 15.2463 7.32079 15.2132C7.34499 15.1383 7.34499 15.1383 7.36936 15.0857Z" fill="#D93E24"/>
<path d="M15.3687 8.91431C15.4755 8.91431 15.5822 8.91431 15.6922 8.91431C15.6922 9.15562 15.6922 9.39693 15.6922 9.64556C15.8975 9.64556 16.1028 9.64556 16.3143 9.64556C16.3143 9.76621 16.3143 9.88687 16.3143 10.0112C16.109 10.0112 15.9037 10.0112 15.6922 10.0112C15.6922 10.2432 15.6922 10.4752 15.6922 10.7143C15.5855 10.7143 15.4787 10.7143 15.3687 10.7143C15.3687 10.4823 15.3687 10.2502 15.3687 10.0112C15.1716 10.0112 14.9745 10.0112 14.7715 10.0112C14.7715 9.89053 14.7715 9.76987 14.7715 9.64556C14.9686 9.64556 15.1657 9.64556 15.3687 9.64556C15.3687 9.40424 15.3687 9.16293 15.3687 8.91431Z" fill="#D93C23"/>
<path d="M12.9717 3C13.0058 3.01816 13.0399 3.03705 13.074 3.05625C13.0929 3.06669 13.1119 3.07713 13.1315 3.08789C13.1821 3.12857 13.1821 3.12857 13.2288 3.25714C13.144 3.23593 13.0591 3.21471 12.9717 3.19286C12.9717 3.12921 12.9717 3.06557 12.9717 3Z" fill="#D32714"/>
<path d="M12.7049 11.9763C12.3667 11.9763 12.0752 11.8961 11.8303 11.7358C11.5855 11.5743 11.3968 11.3427 11.2643 11.0411C11.1318 10.7382 11.0661 10.3741 11.0674 9.94876C11.0687 9.52344 11.1349 9.16249 11.2662 8.86591C11.3987 8.56806 11.5867 8.34152 11.8303 8.18628C12.0752 8.02979 12.3667 7.95154 12.7049 7.95154C13.0432 7.95154 13.3347 8.02979 13.5795 8.18628C13.8256 8.34152 14.015 8.56806 14.1475 8.86591C14.28 9.16375 14.3456 9.52471 14.3444 9.94876C14.3444 10.3753 14.2781 10.7401 14.1456 11.043C14.0131 11.3459 13.8244 11.5775 13.5795 11.7377C13.336 11.8968 13.0444 11.9763 12.7049 11.9763ZM12.7049 11.2096C12.9069 11.2096 13.0703 11.1067 13.1952 10.901C13.3202 10.694 13.382 10.3766 13.3808 9.94876C13.3808 9.66858 13.3524 9.43762 13.2956 9.25588C13.2388 9.07288 13.1599 8.93658 13.0589 8.84697C12.958 8.75737 12.84 8.71256 12.7049 8.71256C12.5043 8.71256 12.3421 8.81416 12.2184 9.01735C12.0947 9.21929 12.0323 9.52975 12.031 9.94876C12.0297 10.2327 12.0569 10.4681 12.1124 10.6549C12.1692 10.8417 12.2487 10.9811 12.3509 11.0733C12.4532 11.1641 12.5712 11.2096 12.7049 11.2096Z" fill="#D93E24"/>
<path d="M8.12906 11.8816V11.2077L9.54321 9.96958C9.64922 9.87367 9.73946 9.78595 9.81392 9.70644C9.88838 9.62567 9.94517 9.5449 9.9843 9.46413C10.0234 9.38209 10.043 9.29312 10.043 9.1972C10.043 9.08992 10.0196 8.99842 9.97294 8.9227C9.92624 8.84571 9.86188 8.7864 9.77984 8.74475C9.69781 8.7031 9.60378 8.68228 9.49777 8.68228C9.39049 8.68228 9.29647 8.70436 9.2157 8.74853C9.13493 8.79144 9.07182 8.85392 9.02639 8.93595C8.98222 9.01798 8.96013 9.11769 8.96013 9.23506H8.07227C8.07227 8.97129 8.13158 8.74349 8.25022 8.55165C8.36885 8.35982 8.53544 8.21216 8.75 8.10867C8.96581 8.00391 9.21633 7.95154 9.50156 7.95154C9.79562 7.95154 10.0512 8.00076 10.2683 8.0992C10.4853 8.19764 10.6532 8.33521 10.7718 8.5119C10.8917 8.68732 10.9517 8.89115 10.9517 9.12337C10.9517 9.27103 10.922 9.41743 10.8627 9.56257C10.8034 9.7077 10.6967 9.86799 10.5428 10.0434C10.3901 10.2188 10.173 10.429 9.89154 10.6738L9.42773 11.1017V11.1263H10.999V11.8816H8.12906Z" fill="#D93E24"/>
</svg>
