<svg width="24" height="24" viewBox="0 0 24 24" fill="none" xmlns="http://www.w3.org/2000/svg">
<path d="M10.6667 14.3333L14.9917 11.8333L10.6667 9.33333V14.3333ZM20.3 7.80833C20.4083 8.2 20.4833 8.725 20.5333 9.39167C20.5917 10.0583 20.6167 10.6333 20.6167 11.1333L20.6667 11.8333C20.6667 13.6583 20.5333 15 20.3 15.8583C20.0917 16.6083 19.6083 17.0917 18.8583 17.3C18.4667 17.4083 17.75 17.4833 16.65 17.5333C15.5667 17.5917 14.575 17.6167 13.6583 17.6167L12.3333 17.6667C8.84167 17.6667 6.66667 17.5333 5.80833 17.3C5.05833 17.0917 4.575 16.6083 4.36667 15.8583C4.25833 15.4667 4.18333 14.9417 4.13333 14.275C4.075 13.6083 4.05 13.0333 4.05 12.5333L4 11.8333C4 10.0083 4.13333 8.66667 4.36667 7.80833C4.575 7.05833 5.05833 6.575 5.80833 6.36667C6.2 6.25833 6.91667 6.18333 8.01667 6.13333C9.1 6.075 10.0917 6.05 11.0083 6.05L12.3333 6C15.825 6 18 6.13333 18.8583 6.36667C19.6083 6.575 20.0917 7.05833 20.3 7.80833Z" fill="#D33D23"/>
</svg>
