<svg width="24" height="24" viewBox="0 0 24 24" fill="none" xmlns="http://www.w3.org/2000/svg">
<path d="M9.69028 7.37302C9.74216 7.37276 9.79403 7.37239 9.84591 7.37191C9.98539 7.37098 10.1248 7.37162 10.2643 7.37263C10.411 7.37348 10.5578 7.37302 10.7046 7.37276C10.9509 7.37253 11.1971 7.37334 11.4434 7.37477C11.7272 7.37641 12.011 7.37641 12.2948 7.37552C12.5691 7.37471 12.8433 7.37506 13.1176 7.37593C13.2338 7.37628 13.35 7.37623 13.4661 7.37585C13.6031 7.37546 13.7401 7.37609 13.8771 7.37748C13.9271 7.37783 13.977 7.37784 14.027 7.37747C14.3661 7.37524 14.6017 7.43204 14.8915 7.60964C14.9119 7.62165 14.9324 7.63365 14.9535 7.64601C14.9994 7.67386 15.044 7.70392 15.0883 7.73419C15.1039 7.74481 15.1195 7.75543 15.1355 7.76638C15.6456 8.11802 16.1015 8.53431 16.5399 8.97003C16.5723 9.00221 16.5723 9.00221 16.6054 9.03504C16.7308 9.16043 16.8502 9.28895 16.9656 9.42349C16.9893 9.45027 17.013 9.47702 17.0368 9.50372C17.2585 9.75543 17.4587 10.0219 17.657 10.2921C17.6705 10.3102 17.6839 10.3284 17.6978 10.3471C17.9217 10.6491 18.1157 10.9674 18.3053 11.2918C18.3414 11.3532 18.3781 11.4141 18.4153 11.4749C19.0841 12.5936 19.4949 13.9362 19.6543 15.2227C19.6565 15.2393 19.6586 15.256 19.6609 15.2731C19.6779 15.4125 19.684 15.5495 19.6842 15.6898C19.6843 15.7118 19.6844 15.7337 19.6845 15.7563C19.6846 15.8026 19.6847 15.8488 19.6847 15.895C19.6847 15.9643 19.6852 16.0337 19.6857 16.103C19.6894 17.2324 19.326 18.2949 18.5532 19.1314C18.5416 19.1441 18.53 19.1568 18.5181 19.1698C18.0812 19.6426 17.5217 19.9876 16.94 20.2555C16.9225 20.2636 16.9049 20.2718 16.8868 20.2803C16.1086 20.6389 15.2548 20.8323 14.4049 20.9197C14.3688 20.9234 14.3688 20.9234 14.3319 20.9272C14.2581 20.9347 14.1843 20.9417 14.1104 20.9484C14.0896 20.9504 14.0687 20.9523 14.0471 20.9543C13.5895 20.9928 13.1301 21.0003 12.6711 20.9997C12.62 20.9997 12.569 20.9998 12.518 20.9998C12.4121 20.9998 12.3062 20.9998 12.2003 20.9996C12.0665 20.9995 11.9328 20.9996 11.7991 20.9997C10.7 21.0008 10.7 21.0008 10.2054 20.9708C10.1864 20.9696 10.1673 20.9685 10.1477 20.9673C8.42935 20.8613 6.54259 20.4569 5.26328 19.2336C5.22951 19.2023 5.22951 19.2023 5.19506 19.1704C4.4293 18.4398 4.02901 17.3558 4.00335 16.3107C3.99556 15.8955 3.99664 15.4806 4.05976 15.0694C4.0643 15.0363 4.0643 15.0363 4.06894 15.0026C4.19427 14.0915 4.49457 13.2197 4.87918 12.387C4.89085 12.3615 4.90253 12.3361 4.91456 12.3099C5.27787 11.5231 5.71592 10.7811 6.23634 10.0877C6.24782 10.0723 6.2593 10.057 6.27112 10.0412C6.4307 9.82832 6.60018 9.6247 6.77408 9.42349C6.7977 9.39602 6.7977 9.39602 6.8218 9.368C6.86521 9.31797 6.90914 9.26846 6.95333 9.21911C6.97254 9.19757 6.99175 9.17604 7.01155 9.15385C7.15601 8.99414 7.30527 8.8398 7.45747 8.68741C7.4754 8.6694 7.49334 8.65139 7.51182 8.63283C7.62879 8.51648 7.74999 8.40685 7.87518 8.29942C7.90262 8.27517 7.93003 8.25089 7.9574 8.22657C8.11864 8.08477 8.28455 7.95064 8.45773 7.8236C8.47445 7.8111 8.49116 7.7986 8.50839 7.78572C8.56921 7.74191 8.63163 7.70145 8.6946 7.66074C8.70957 7.65069 8.72455 7.64064 8.73998 7.63029C9.0588 7.41981 9.3125 7.36808 9.69028 7.37302Z" fill="#D83C24"/>
<path d="M13.2232 3.34495C13.6305 3.53888 14.0353 3.66197 14.4855 3.52311C14.5538 3.49786 14.6205 3.47156 14.6874 3.4434C14.7131 3.43267 14.7388 3.42195 14.7652 3.41089C14.9331 3.34022 15.1003 3.26802 15.2669 3.19446C15.3809 3.14607 15.4866 3.12257 15.6104 3.14335C15.747 3.25495 15.7863 3.45287 15.8155 3.61844C15.8437 4.0702 15.8344 4.51104 15.6873 4.94368C15.6806 4.96399 15.6739 4.9843 15.667 5.00522C15.4974 5.50795 15.2606 5.95843 14.8861 6.3458C14.8398 6.39115 14.8398 6.39115 14.8156 6.44396C14.7987 6.44396 14.7818 6.44396 14.7644 6.44396C14.7586 6.45811 14.7529 6.47226 14.747 6.48684C14.7028 6.56125 14.6483 6.6038 14.5801 6.65806C14.5565 6.67718 14.5328 6.69629 14.5085 6.71599C14.3559 6.82049 14.2309 6.85525 14.0458 6.85373C14.0259 6.85386 14.0059 6.854 13.9853 6.85414C13.9188 6.85449 13.8523 6.85432 13.7858 6.85414C13.7379 6.85428 13.6901 6.85446 13.6422 6.85466C13.5125 6.85511 13.3827 6.85508 13.253 6.85494C13.1446 6.85486 13.0361 6.85501 12.9277 6.85516C12.6718 6.85551 12.4159 6.85547 12.1599 6.85519C11.8963 6.8549 11.6326 6.85525 11.3689 6.85592C11.1423 6.85648 10.9156 6.85664 10.6889 6.8565C10.5537 6.85641 10.4184 6.85647 10.2832 6.8569C10.1559 6.85729 10.0287 6.85719 9.90143 6.85672C9.85486 6.85663 9.80829 6.85671 9.76172 6.85697C9.43323 6.85868 9.17465 6.83629 8.92733 6.60649C8.8031 6.47661 8.6941 6.33623 8.58552 6.19392C8.57215 6.17655 8.55878 6.15918 8.54501 6.14129C8.03874 5.48147 7.6171 4.79649 7.60165 3.95131C7.60098 3.92932 7.60031 3.90733 7.59961 3.88468C7.59921 3.72914 7.62858 3.60162 7.71382 3.46841C7.89329 3.32255 8.09625 3.32326 8.32152 3.33643C8.50208 3.35776 8.67319 3.4303 8.8419 3.49341C8.90749 3.51717 8.97322 3.54047 9.039 3.56374C9.06607 3.5737 9.09313 3.58366 9.12102 3.59392C9.81839 3.80812 10.4826 3.49992 11.0981 3.21055C11.8675 2.84945 12.4901 2.99144 13.2232 3.34495Z" fill="#D83C24"/>
<path d="M9.72338 10.2C9.7519 10.2005 9.7519 10.2005 9.78099 10.2011C9.80134 10.201 9.8217 10.2009 9.84267 10.2008C9.91095 10.2005 9.97918 10.2013 10.0475 10.202C10.0964 10.202 10.1453 10.202 10.1942 10.2019C10.3271 10.2019 10.4599 10.2026 10.5928 10.2035C10.7316 10.2043 10.8704 10.2044 11.0092 10.2046C11.2722 10.205 11.5351 10.206 11.798 10.2073C12.0973 10.2088 12.3966 10.2095 12.6959 10.2101C13.3116 10.2115 13.9273 10.2138 14.5431 10.2166C14.5211 10.3837 14.4752 10.499 14.3968 10.6462C14.386 10.6677 14.3751 10.6892 14.3639 10.7114C14.2762 10.8783 14.1805 10.9941 14.0031 11.0693C13.9448 11.0765 13.9448 11.0765 13.8804 11.0776C13.8442 11.0783 13.8442 11.0783 13.8071 11.0791C13.7683 11.0796 13.7683 11.0796 13.7286 11.08C13.702 11.0805 13.6753 11.081 13.6478 11.0815C13.5627 11.0831 13.4775 11.0843 13.3924 11.0855C13.3346 11.0865 13.2768 11.0875 13.2191 11.0885C13.0776 11.091 12.936 11.0932 12.7945 11.0952C12.805 11.1139 12.8154 11.1327 12.8262 11.1521C12.84 11.1771 12.8538 11.2022 12.868 11.228C12.8817 11.2526 12.8953 11.2773 12.9094 11.3027C12.9981 11.4754 13.0501 11.6581 13.1031 11.8445C13.5783 11.853 14.0535 11.8615 14.5431 11.8703C14.5155 12.0365 14.4638 12.1408 14.384 12.2854C14.3719 12.3082 14.3598 12.3311 14.3473 12.3547C14.261 12.5125 14.1803 12.6378 14.0031 12.6972C13.9329 12.7011 13.8633 12.7038 13.793 12.7053C13.7726 12.7059 13.7522 12.7064 13.7311 12.707C13.6659 12.7087 13.6006 12.7102 13.5354 12.7117C13.4911 12.7128 13.4469 12.714 13.4026 12.7151C13.2942 12.7179 13.1858 12.7205 13.0774 12.723C13.0676 12.7617 13.0676 12.7617 13.0577 12.8012C12.9259 13.3181 12.6844 13.7236 12.2288 14.015C11.9934 14.1549 11.7488 14.2585 11.4831 14.325C11.4511 14.3337 11.4511 14.3337 11.4185 14.3426C11.1715 14.3995 10.912 14.3813 10.6602 14.3767C10.6602 14.3938 10.6602 14.4108 10.6602 14.4284C10.6772 14.4284 10.6942 14.4284 10.7116 14.4284C10.7498 14.4732 10.7858 14.52 10.8209 14.5673C10.8441 14.5982 10.8674 14.6292 10.8906 14.6601C10.9095 14.6853 10.9095 14.6853 10.9287 14.711C11.0001 14.8059 11.0728 14.8997 11.1456 14.9936C11.1686 15.0234 11.1686 15.0234 11.192 15.0537C11.3009 15.1942 11.4114 15.3334 11.5225 15.472C11.6175 15.591 11.7097 15.7118 11.8013 15.8334C11.9309 16.0051 12.0653 16.1721 12.2024 16.3379C12.3137 16.4728 12.421 16.6102 12.5267 16.7497C12.7092 16.99 12.8969 17.2262 13.0879 17.4598C13.1275 17.5085 13.1668 17.5575 13.2059 17.6066C13.2208 17.6249 13.2357 17.6432 13.2511 17.6621C13.2654 17.6804 13.2798 17.6986 13.2946 17.7174C13.3078 17.7339 13.321 17.7504 13.3346 17.7674C13.343 17.7826 13.3515 17.7977 13.3602 17.8133C13.3517 17.8389 13.3432 17.8645 13.3345 17.8908C13.1693 17.8961 13.0042 17.8997 12.839 17.9022C12.7829 17.9032 12.7267 17.9046 12.6706 17.9064C12.5897 17.9089 12.5089 17.9101 12.428 17.911C12.403 17.9121 12.3781 17.9131 12.3524 17.9142C12.2486 17.9143 12.1796 17.9135 12.0969 17.8465C12.0511 17.7943 12.011 17.7413 11.9716 17.6841C11.9487 17.6551 11.9255 17.6262 11.9021 17.5975C11.8802 17.5694 11.8584 17.5412 11.8366 17.5129C11.8121 17.4814 11.7876 17.4498 11.7631 17.4182C11.7508 17.4023 11.7385 17.3865 11.7258 17.3701C11.6665 17.2937 11.6069 17.2176 11.5474 17.1415C11.5238 17.1113 11.5002 17.0812 11.4766 17.051C11.465 17.0361 11.4533 17.0212 11.4413 17.0058C11.3116 16.84 11.182 16.6742 11.0524 16.5084C11.0407 16.4935 11.029 16.4786 11.017 16.4632C10.9934 16.433 10.9697 16.4028 10.9461 16.3725C10.8882 16.2984 10.8302 16.2244 10.7722 16.1503C10.64 15.9816 10.5085 15.8124 10.3774 15.6428C10.1481 15.3464 9.91732 15.0512 9.68357 14.7582C9.66557 14.735 9.66557 14.735 9.64721 14.7113C9.60518 14.6586 9.60518 14.6586 9.55132 14.6045C9.41051 14.4511 9.37715 14.3411 9.38087 14.1331C9.38248 14.1021 9.38409 14.0711 9.38574 14.0392C9.38646 14.0073 9.38717 13.9754 9.3879 13.9425C9.39439 13.7107 9.39439 13.7107 9.42592 13.6791C9.50523 13.6774 9.58399 13.6774 9.66328 13.6783C9.71312 13.6787 9.76295 13.679 9.81279 13.6793C9.89127 13.6799 9.96974 13.6807 10.0482 13.6815C10.6242 13.6876 11.2502 13.6648 11.7041 13.2574C11.8655 13.0892 11.9416 12.9211 11.9974 12.6972C11.0554 12.6972 10.1135 12.6972 9.14307 12.6972C9.1663 12.5804 9.1932 12.5121 9.24823 12.4093C9.26416 12.3795 9.28009 12.3498 9.2965 12.3191C9.30898 12.2961 9.30898 12.2961 9.3217 12.2726C9.34722 12.2255 9.3724 12.1782 9.39755 12.1309C9.52216 11.8995 9.52216 11.8995 9.58021 11.8703C9.65632 11.8679 9.73182 11.8671 9.80793 11.8674C9.83152 11.8674 9.8551 11.8674 9.8794 11.8674C9.95759 11.8674 10.0358 11.8676 10.114 11.8678C10.1681 11.8678 10.2222 11.8679 10.2763 11.8679C10.419 11.868 10.5616 11.8683 10.7042 11.8686C10.8497 11.8688 10.9952 11.8689 11.1406 11.8691C11.4262 11.8693 11.7118 11.8698 11.9974 11.8703C11.9692 11.8121 11.9409 11.754 11.9125 11.6959C11.9046 11.6795 11.8967 11.6631 11.8885 11.6463C11.7647 11.3943 11.588 11.2724 11.3288 11.1727C11.0796 11.0912 10.8384 11.083 10.5795 11.0819C10.5378 11.0815 10.4962 11.081 10.4545 11.0805C10.346 11.0793 10.2374 11.0785 10.1288 11.0779C10.0177 11.0771 9.90646 11.0759 9.79527 11.0747C9.57787 11.0725 9.36047 11.0708 9.14307 11.0693C9.16126 10.9695 9.18835 10.8923 9.23518 10.802C9.24855 10.7762 9.26193 10.7504 9.27571 10.7238C9.28974 10.6971 9.30378 10.6705 9.31824 10.643C9.33198 10.6163 9.34572 10.5896 9.35988 10.5621C9.54758 10.2025 9.54758 10.2025 9.72338 10.2Z" fill="#FCFAF9"/>
</svg>
