<svg width="24" height="24" viewBox="0 0 24 24" fill="none" xmlns="http://www.w3.org/2000/svg">
<path d="M14.4072 16.5713C14.5582 16.5723 14.6729 16.5974 14.7988 16.6836C14.9071 16.7974 14.9271 16.8821 14.9277 17.0361C14.9279 17.068 14.9285 17.1 14.9287 17.1328V17.3506C14.9292 17.4726 14.9294 17.5948 14.9297 17.7168C14.9298 17.7588 14.9305 17.8008 14.9306 17.8428C14.9311 18.0404 14.9314 18.238 14.9316 18.4356C14.9318 18.6636 14.9325 18.892 14.9336 19.1201C14.9343 19.2964 14.9345 19.4731 14.9345 19.6494C14.9346 19.7546 14.9349 19.8597 14.9355 19.9649C14.9361 20.064 14.9358 20.1636 14.9355 20.2627C14.9355 20.2988 14.9361 20.335 14.9365 20.3711C14.9396 20.7145 14.9395 20.7147 14.8242 20.8604C14.734 20.9303 14.6583 20.9701 14.5566 20.9834C14.5466 20.985 14.5365 20.9852 14.5263 20.9863C14.5155 20.9871 14.5046 20.99 14.4931 20.9902C14.4903 20.9903 14.4872 20.9902 14.4843 20.9902C14.4404 20.9927 14.3943 20.993 14.3437 20.9922C14.3395 20.9922 14.3352 20.9922 14.331 20.9922C14.2659 20.9929 14.2008 20.9938 14.1357 20.9941C14.0844 20.9946 14.0327 20.9951 13.9814 20.9961C13.9072 20.9975 13.833 20.9977 13.7588 20.9981C13.7361 20.9986 13.7128 20.9994 13.6894 21C13.6365 20.9998 13.5868 20.9939 13.539 20.9854C13.5257 20.9852 13.5123 20.9855 13.499 20.9854V20.9766C13.4183 20.9565 13.3435 20.9226 13.2734 20.8604C13.2265 20.8097 13.1959 20.7567 13.1748 20.7022C13.1588 20.6761 13.1496 20.6469 13.1464 20.6055C13.1371 20.5558 13.1339 20.5045 13.1328 20.4512V20.1856C13.1324 20.0864 13.1332 19.9869 13.1338 19.8877C13.1343 19.7837 13.1338 19.6792 13.1338 19.5752C13.1338 19.4005 13.1339 19.2255 13.1347 19.0508C13.1357 18.849 13.1359 18.6471 13.1357 18.4453C13.1355 18.2508 13.1362 18.0559 13.1367 17.8613C13.1369 17.7787 13.1367 17.6959 13.1367 17.6133C13.1367 17.516 13.137 17.4186 13.1377 17.3213C13.1378 17.2858 13.1377 17.2503 13.1377 17.2149C13.1376 17.1662 13.1382 17.117 13.1386 17.0684C13.1387 17.0411 13.1385 17.0134 13.1386 16.9854C13.1517 16.8811 13.1888 16.7968 13.2597 16.7188C13.2663 16.7136 13.2728 16.7081 13.2793 16.7031C13.3762 16.5794 13.4048 16.5668 13.4834 16.5899C13.4875 16.5888 13.4918 16.5878 13.4961 16.5869C13.5231 16.5808 13.5523 16.5765 13.5849 16.5762C13.6068 16.5759 13.6288 16.5755 13.6513 16.5752H13.7959C13.8474 16.5749 13.8996 16.5742 13.9511 16.5742C14.0295 16.5741 14.1081 16.5732 14.1865 16.5723C14.2366 16.5721 14.2868 16.5723 14.3369 16.5723C14.3601 16.5719 14.3833 16.5717 14.4072 16.5713ZM16.6963 13.6221C16.9821 13.4309 17.259 13.44 17.5527 13.6143C17.7946 13.7943 17.919 14.1408 17.9648 14.4277C18.0315 15.0413 17.8865 15.5809 17.7002 16.1592C17.7242 16.1591 17.7486 16.1583 17.7734 16.1582C18.0024 16.1577 18.2319 16.1575 18.4609 16.1572C18.5784 16.1571 18.6959 16.1575 18.8134 16.1572C18.9273 16.157 19.0414 16.1563 19.1552 16.1563C19.1984 16.1562 19.242 16.1564 19.2851 16.1563C19.5017 16.1556 19.7182 16.1571 19.9345 16.168C19.9516 16.1687 19.9687 16.1692 19.9863 16.1699C20.2025 16.1825 20.3669 16.2758 20.5127 16.4326C20.6674 16.6378 20.7315 16.8548 20.7011 17.1094C20.6318 17.3268 20.5175 17.4631 20.3261 17.584C20.3488 17.6071 20.3712 17.6305 20.3945 17.6543C20.5091 17.7884 20.5786 17.9585 20.5869 18.1357C20.5582 18.3936 20.4717 18.588 20.2695 18.7549C20.2147 18.7922 20.1665 18.8056 20.1006 18.8096V18.8594H20.1504C20.1708 18.8947 20.1917 18.9303 20.2119 18.9658C20.2232 18.9855 20.2344 19.0051 20.2461 19.0254C20.2714 19.0757 20.2858 19.1289 20.2959 19.1826C20.2975 19.1832 20.2991 19.184 20.3007 19.1846V19.21C20.3099 19.2748 20.3097 19.3404 20.3007 19.4063V19.4346H20.2959C20.2922 19.4562 20.2895 19.4786 20.2841 19.5C20.2171 19.6854 20.1131 19.8306 19.9443 19.9346C19.8756 19.9596 19.8756 19.96 19.8007 19.96C19.8254 19.997 19.8253 19.9973 19.8506 20.0352C19.8768 20.3608 19.8536 20.5783 19.6406 20.833C19.5281 20.9222 19.4095 20.9615 19.2832 20.9805C19.2786 20.9812 19.2741 20.9817 19.2695 20.9824C19.1814 20.9945 19.0895 20.9987 18.9931 20.9981C18.9609 20.9982 18.9287 20.9989 18.8955 20.999H18.3545C18.1993 20.9992 18.0438 20.9985 17.8886 20.9981C17.7097 20.9975 17.5304 20.9975 17.3515 20.9981C17.1976 20.9985 17.0436 20.9993 16.8896 20.999C16.7979 20.9989 16.7059 20.9987 16.6142 20.999C16.5118 20.9994 16.409 20.9986 16.3066 20.9981C16.2767 20.9983 16.2466 20.9988 16.2158 20.999C16.1521 20.9984 16.0915 20.9939 16.0341 20.9854C16.0143 20.9853 15.9944 20.9855 15.9746 20.9854V20.9736C15.8246 20.9417 15.6929 20.876 15.5664 20.7568C15.4357 20.6125 15.3965 20.4713 15.3955 20.2803C15.3953 20.2485 15.3947 20.2163 15.3945 20.1836C15.3944 20.1483 15.3946 20.1125 15.3945 20.0772C15.3943 20.04 15.3937 20.0029 15.3935 19.9658C15.3929 19.8436 15.3929 19.7209 15.3925 19.5986C15.3924 19.5566 15.3917 19.5147 15.3916 19.4727C15.391 19.2971 15.3909 19.1209 15.3906 18.9453C15.3902 18.6945 15.3891 18.4433 15.3877 18.1924C15.3867 18.0157 15.3868 17.8388 15.3867 17.6621C15.3866 17.5568 15.3855 17.451 15.3847 17.3457C15.384 17.2465 15.3844 17.1471 15.3847 17.0479C15.3847 17.0117 15.3842 16.9756 15.3838 16.9395C15.3801 16.6221 15.4656 16.382 15.6367 16.1182C15.647 16.1018 15.6573 16.0852 15.6679 16.0684C15.7413 15.9542 15.8204 15.8443 15.9013 15.7354C16.0384 15.5505 16.1567 15.3807 16.2246 15.1582C16.232 15.1351 16.2317 15.1349 16.2392 15.1113C16.3322 14.8171 16.3768 14.5206 16.4072 14.2139C16.4351 13.9708 16.503 13.7805 16.6963 13.6221ZM10.792 4.00001C11.1215 4.0006 11.4468 4.00643 11.7734 4.0547C11.7963 4.05791 11.8192 4.06115 11.8427 4.06446C13.3662 4.28224 14.8301 4.92203 15.9629 5.97364C16.0162 6.02299 16.0707 6.07098 16.1259 6.11817C16.3153 6.28362 16.4851 6.46241 16.6416 6.65919C16.6801 6.70675 16.72 6.75316 16.7607 6.79884C17.0944 7.17433 17.3675 7.61095 17.5996 8.05567C17.6119 8.079 17.6124 8.07973 17.625 8.10352C18.1735 9.14645 18.4817 10.3085 18.4785 11.4893C18.4783 11.5472 18.4783 11.6051 18.4785 11.6631C18.4788 12.0865 18.4476 12.4921 18.374 12.9092C18.3669 12.9505 18.3596 12.9919 18.3525 13.0332C18.3354 13.133 18.3173 13.2333 18.2998 13.333H18.25C18.2156 13.2963 18.2154 13.2959 18.1748 13.2451C17.9685 13.0049 17.6902 12.805 17.3662 12.7744C17.3346 12.7724 17.3029 12.7706 17.2705 12.7686C17.2228 12.7654 17.2224 12.7659 17.1738 12.7627C17.1494 12.7612 17.1247 12.7594 17.0996 12.7578C17.1032 12.7006 17.1066 12.6432 17.1103 12.5859C17.1123 12.5541 17.1151 12.5221 17.1172 12.4893C17.1207 12.4364 17.1245 12.3837 17.1308 12.3311C17.1999 11.7571 17.1875 11.1228 17.0752 10.5566C17.0702 10.5313 17.0646 10.5056 17.0595 10.4795C16.8472 9.42531 16.414 8.45846 15.7246 7.63087C15.7136 7.61767 15.7027 7.60442 15.6914 7.59083C15.4637 7.31749 15.2245 7.05772 14.9492 6.83106C14.9247 6.81089 14.9002 6.79033 14.875 6.76954C13.8115 5.90754 12.4519 5.33953 11.0732 5.30567C11.0434 5.3049 11.0431 5.3045 11.0127 5.30372C9.19257 5.26339 7.51636 5.87252 6.19625 7.13087C6.17628 7.14981 6.15628 7.16897 6.13571 7.18848C5.99364 7.32664 5.86862 7.47533 5.74606 7.63087C5.71633 7.66789 5.71679 7.66832 5.68649 7.70606C5.24375 8.267 4.89706 8.90397 4.67086 9.58204C4.66077 9.61183 4.66074 9.61196 4.65035 9.64259C4.11377 11.2485 4.28429 13.0236 5.02731 14.5352C5.22654 14.9303 5.46309 15.294 5.74606 15.6338C5.75719 15.6475 5.76877 15.6607 5.78024 15.6748C6.07277 16.0336 6.3993 16.3823 6.77145 16.6592C6.78787 16.6715 6.80434 16.6837 6.82125 16.6963C7.33556 17.0791 7.88945 17.42 8.49703 17.6338C8.5259 17.6442 8.52618 17.6447 8.55563 17.6553C9.83114 18.1105 11.1067 18.1187 12.4238 17.8594V19.21C12.3014 19.2322 12.1783 19.2504 12.0556 19.2676C12.0772 19.2704 12.0994 19.276 12.123 19.2842C12.1148 19.3007 12.1071 19.318 12.0986 19.335C12.0405 19.3452 11.9814 19.353 11.9228 19.3594V19.3096C11.9095 19.3029 11.8964 19.2959 11.8828 19.2891C11.4584 19.3403 11.0336 19.3613 10.6113 19.3506C10.4988 19.3574 10.3863 19.3614 10.2724 19.3594C10.2696 19.3509 10.2665 19.3425 10.2636 19.334C8.89796 19.2425 7.57204 18.8182 6.40719 18.0195C6.08578 17.7957 5.78458 17.5487 5.49606 17.2842C5.46881 17.2596 5.44129 17.2346 5.41403 17.21C5.282 17.0902 5.15339 16.9712 5.03903 16.834C5.00833 16.7978 4.97595 16.763 4.94332 16.7285C4.00431 15.7373 3.39892 14.4155 3.14547 13.083C3.14205 13.0654 3.13826 13.0475 3.13473 13.0293C3.10962 12.8977 3.08864 12.7655 3.07028 12.6328C3.06632 12.6044 3.06648 12.6041 3.06246 12.5752C2.79297 10.5213 3.41668 8.51934 4.65524 6.8838C4.72088 6.79938 4.78987 6.71938 4.86325 6.64161C4.87993 6.60375 4.90805 6.57445 4.94625 6.53028C4.95045 6.53168 4.95475 6.53279 4.95895 6.53419C4.97259 6.51862 4.98737 6.50403 5.00094 6.48829C5.24879 6.20404 5.52103 5.93362 5.82125 5.70509C5.85313 5.67999 5.88513 5.65504 5.91696 5.62989C6.63992 5.0627 7.45061 4.64295 8.32223 4.3545C8.34157 4.34806 8.3609 4.34161 8.38082 4.33497C9.13553 4.08746 9.93187 3.99905 10.7226 4.00001C10.7454 4.00002 10.7684 3.99999 10.792 4.00001ZM7.43063 12.8857C7.62184 12.7119 7.86151 12.673 8.10153 12.7803C8.26985 12.8796 8.35482 13.0322 8.44625 13.1992C8.52406 13.3399 8.61602 13.4618 8.72164 13.583C8.73959 13.604 8.75785 13.6249 8.77633 13.6465C9.21399 14.1465 9.83067 14.5351 10.5088 14.5811C10.54 14.5822 10.5403 14.5819 10.5722 14.583C10.5988 14.584 10.6259 14.5849 10.6533 14.5859C11.3761 14.5996 12.0109 14.3307 12.5371 13.8428C12.786 13.6009 12.9812 13.3428 13.1377 13.0332C13.2201 12.8799 13.3601 12.786 13.5234 12.7324C13.7005 12.7109 13.8591 12.709 14.0058 12.8184C14.137 12.9376 14.2363 13.0503 14.2568 13.2324C14.2623 13.692 13.9683 14.0753 13.6738 14.4082C13.6525 14.4326 13.6313 14.4573 13.6093 14.4824C12.9947 15.1746 12.1167 15.7197 11.1728 15.7832C10.7171 15.8011 10.2637 15.8118 9.82223 15.6836C9.79471 15.676 9.79468 15.6757 9.76657 15.668C9.11268 15.4847 8.56515 15.1169 8.07223 14.6582C8.05438 14.642 8.03593 14.6261 8.01754 14.6094C7.7192 14.3268 7.29349 13.8419 7.23825 13.418C7.23514 13.2013 7.28032 13.0451 7.43063 12.8857ZM7.54684 9.18165C7.86635 8.90967 8.28522 8.87797 8.64059 9.10059C8.83187 9.23758 8.94838 9.40971 9.02243 9.63184C9.03799 9.87105 9.04628 10.0936 8.92184 10.3066C8.91181 10.3242 8.9019 10.3422 8.89157 10.3604C8.76798 10.5487 8.56251 10.6755 8.34664 10.7324C8.08267 10.7562 7.84937 10.7458 7.63082 10.582C7.42014 10.4029 7.28982 10.2229 7.26364 9.94141C7.26034 9.62926 7.32686 9.40858 7.54684 9.18165ZM12.625 9.28809C12.9414 8.90901 13.4524 8.84577 13.8554 9.12403C14.0128 9.25244 14.1641 9.42695 14.1992 9.63184C14.2245 9.94986 14.2056 10.1881 13.9922 10.4395C13.8321 10.6068 13.665 10.7192 13.4297 10.7402C13.2352 10.7446 13.0664 10.7402 12.8984 10.6318C12.8724 10.6156 12.8722 10.6153 12.8457 10.5986C12.6513 10.4651 12.5143 10.2789 12.4599 10.0479C12.4126 9.76707 12.4607 9.52153 12.625 9.28809Z" fill="#CC2717"/>
</svg>
