<svg width="24" height="24" viewBox="0 0 24 24" fill="none" xmlns="http://www.w3.org/2000/svg">
<path d="M11.5 4C15.6423 4 19 7.35775 19 11.5C19 15.6423 15.6423 19 11.5 19C7.35775 19 4 15.6423 4 11.5C4 7.35775 7.35775 4 11.5 4ZM11.5 5.5C9.9087 5.5 8.38258 6.13214 7.25736 7.25736C6.13214 8.38258 5.5 9.9087 5.5 11.5C5.5 13.0913 6.13214 14.6174 7.25736 15.7426C8.38258 16.8679 9.9087 17.5 11.5 17.5C13.0913 17.5 14.6174 16.8679 15.7426 15.7426C16.8679 14.6174 17.5 13.0913 17.5 11.5C17.5 9.9087 16.8679 8.38258 15.7426 7.25736C14.6174 6.13214 13.0913 5.5 11.5 5.5ZM11.5 7C11.6837 7.00002 11.861 7.06747 11.9983 7.18954C12.1356 7.31161 12.2233 7.47981 12.2448 7.66225L12.25 7.75V11.1895L14.2802 13.2198C14.4148 13.3547 14.4929 13.5358 14.4987 13.7263C14.5045 13.9167 14.4376 14.1023 14.3116 14.2452C14.1855 14.3881 14.0098 14.4777 13.8201 14.4958C13.6305 14.5139 13.441 14.4591 13.2902 14.3425L13.2198 14.2802L10.9698 12.0302C10.8532 11.9136 10.7783 11.7618 10.7568 11.5982L10.75 11.5V7.75C10.75 7.55109 10.829 7.36032 10.9697 7.21967C11.1103 7.07902 11.3011 7 11.5 7Z" fill="#D33E23"/>
<path d="M20.5714 19.4286H18.4286C18.3071 19.4286 18.2054 19.3875 18.1232 19.3054C18.0411 19.2232 18 19.1214 18 19C18 18.8786 18.0411 18.7768 18.1232 18.6946C18.2054 18.6125 18.3071 18.5714 18.4286 18.5714H20.5714V16.4286C20.5714 16.3071 20.6125 16.2054 20.6946 16.1232C20.7768 16.0411 20.8786 16 21 16C21.1214 16 21.2232 16.0411 21.3054 16.1232C21.3875 16.2054 21.4286 16.3071 21.4286 16.4286V18.5714H23.5714C23.6929 18.5714 23.7946 18.6125 23.8768 18.6946C23.9589 18.7768 24 18.8786 24 19C24 19.1214 23.9589 19.2232 23.8768 19.3054C23.7946 19.3875 23.6929 19.4286 23.5714 19.4286H21.4286V21.5714C21.4286 21.6929 21.3875 21.7946 21.3054 21.8768C21.2232 21.9589 21.1214 22 21 22C20.8786 22 20.7768 21.9589 20.6946 21.8768C20.6125 21.7946 20.5714 21.6929 20.5714 21.5714V19.4286Z" fill="#D33E23"/>
</svg>
