<svg width="24" height="24" viewBox="0 0 24 24" fill="none" xmlns="http://www.w3.org/2000/svg">
<path d="M10.2517 3.00679C10.27 3.00667 10.2883 3.00655 10.3072 3.00643C10.3683 3.00611 10.4294 3.00615 10.4905 3.00619C10.5344 3.00604 10.5783 3.00586 10.6222 3.00567C10.7413 3.00521 10.8604 3.00509 10.9796 3.00506C11.054 3.00502 11.1285 3.00491 11.203 3.00477C11.4629 3.0043 11.7227 3.00408 11.9826 3.00413C12.2247 3.00416 12.4668 3.00361 12.7089 3.0028C12.9168 3.00212 13.1248 3.00185 13.3328 3.00188C13.4569 3.00189 13.5811 3.00175 13.7052 3.0012C13.8221 3.0007 13.9389 3.0007 14.0557 3.00107C14.0985 3.00113 14.1412 3.001 14.184 3.00069C14.6375 2.9976 14.6375 2.9976 14.8125 3.16749C14.824 3.18428 14.8355 3.20106 14.8474 3.21836C14.8652 3.24344 14.8652 3.24344 14.8834 3.26902C14.9601 3.40015 14.9737 3.5118 14.9716 3.66206C14.9715 3.69183 14.9715 3.69183 14.9714 3.72221C14.9711 3.78526 14.9705 3.8483 14.9698 3.91135C14.9696 3.95425 14.9693 3.99714 14.9691 4.04003C14.9686 4.14487 14.9677 4.24971 14.9666 4.35455C14.9818 4.35448 14.997 4.35441 15.0126 4.35433C15.384 4.35262 15.7553 4.35134 16.1267 4.35054C16.3062 4.35014 16.4858 4.3496 16.6654 4.34871C16.8389 4.34785 17.0125 4.34741 17.186 4.34721C17.252 4.34707 17.318 4.34679 17.3839 4.34637C18.0427 4.34234 18.627 4.40326 19.123 4.88638C19.4649 5.23454 19.6383 5.66997 19.6372 6.15573C19.6373 6.18992 19.6373 6.18992 19.6374 6.22481C19.6376 6.30143 19.6375 6.37805 19.6375 6.45467C19.6375 6.51006 19.6376 6.56546 19.6377 6.62086C19.6379 6.77328 19.638 6.9257 19.638 7.07812C19.638 7.24244 19.6382 7.40676 19.6384 7.57108C19.6388 7.94923 19.6389 8.32738 19.639 8.70553C19.6391 8.89246 19.6392 9.07939 19.6393 9.26631C19.6396 9.90637 19.6399 10.5464 19.64 11.1865C19.64 11.2267 19.64 11.2668 19.64 11.307C19.64 11.3473 19.64 11.3875 19.64 11.4278C19.64 11.5086 19.64 11.5894 19.6401 11.6702C19.6401 11.6902 19.6401 11.7102 19.6401 11.7309C19.6402 12.3801 19.6406 13.0294 19.6412 13.6787C19.6418 14.3654 19.6422 15.0521 19.6422 15.7388C19.6422 15.8142 19.6422 15.8896 19.6422 15.9651C19.6422 15.9836 19.6422 16.0022 19.6422 16.0213C19.6422 16.3199 19.6425 16.6184 19.6429 16.9169C19.6433 17.2171 19.6433 17.5174 19.6431 17.8176C19.643 17.9802 19.6431 18.1427 19.6434 18.3053C19.6438 18.4542 19.6437 18.6032 19.6434 18.7521C19.6434 18.8059 19.6434 18.8596 19.6437 18.9134C19.646 19.5157 19.5395 20.0197 19.1181 20.4707C18.718 20.8662 18.219 21.0028 17.673 20.9998C17.6509 20.9996 17.6288 20.9995 17.606 20.9994C17.5585 20.9995 17.511 20.9996 17.4635 20.9998C17.3339 21.0002 17.2044 20.9999 17.0748 20.9996C16.9347 20.9993 16.7946 20.9996 16.6545 20.9998C16.3804 21.0002 16.1063 21 15.8323 20.9996C15.5129 20.9992 15.1934 20.9992 14.874 20.9993C14.2867 20.9995 13.6995 20.9991 13.1122 20.9984C12.5767 20.9978 12.0412 20.9977 11.5057 20.998C10.9033 20.9982 10.3009 20.9983 9.69845 20.9979C9.63417 20.9979 9.56989 20.9978 9.50561 20.9978C9.45817 20.9978 9.45817 20.9978 9.40978 20.9977C9.18731 20.9976 8.96485 20.9977 8.74239 20.9978C8.47117 20.9979 8.19995 20.9978 7.92873 20.9972C7.79044 20.997 7.65216 20.9969 7.51388 20.9971C7.38713 20.9972 7.26038 20.9971 7.13363 20.9966C7.08795 20.9965 7.04226 20.9965 6.99658 20.9967C6.65295 20.9979 6.3203 20.9794 6.01085 20.8124C5.99356 20.8034 5.97628 20.7944 5.95848 20.7851C5.82053 20.7113 5.69679 20.6274 5.58055 20.5223C5.55741 20.5023 5.55741 20.5023 5.53381 20.4818C5.23213 20.203 5.04241 19.7908 5.00846 19.3815C5.00664 19.321 5.00632 19.2606 5.00662 19.2C5.00653 19.1769 5.00644 19.1539 5.00635 19.1301C5.00611 19.0531 5.00623 18.9761 5.00636 18.8991C5.00626 18.8432 5.00614 18.7873 5.00601 18.7315C5.00569 18.5781 5.0057 18.4247 5.00576 18.2713C5.00577 18.1059 5.00548 17.9404 5.00524 17.7749C5.00481 17.4508 5.00467 17.1266 5.00464 16.8025C5.00462 16.5389 5.00451 16.2754 5.00435 16.0119C5.0043 15.936 5.00425 15.8601 5.00421 15.7842C5.0042 15.7653 5.00419 15.7465 5.00417 15.727C5.00386 15.1963 5.00365 14.6656 5.00368 14.1349C5.00368 14.1149 5.00368 14.0949 5.00368 14.0743C5.00368 13.973 5.00369 13.8716 5.00369 13.7702C5.00369 13.7501 5.00369 13.7299 5.0037 13.7092C5.0037 13.6685 5.0037 13.6278 5.0037 13.587C5.00373 12.9538 5.00335 12.3205 5.00264 11.6872C5.00185 10.9755 5.00141 10.2637 5.00145 9.55187C5.00146 9.47592 5.00146 9.39997 5.00146 9.32402C5.00146 9.30532 5.00146 9.28662 5.00146 9.26735C5.00146 8.96684 5.00114 8.66634 5.00069 8.36583C5.00025 8.06363 5.00021 7.76142 5.00054 7.45921C5.00071 7.2956 5.00071 7.13199 5.00027 6.96837C4.99986 6.81844 4.99993 6.66851 5.00038 6.51858C5.00046 6.46449 5.00037 6.4104 5.00008 6.35632C4.9972 5.77637 5.11561 5.30553 5.52897 4.87027C6.04175 4.37572 6.62365 4.33884 7.29772 4.34448C7.36593 4.34467 7.43414 4.34482 7.50235 4.34492C7.66243 4.34524 7.8225 4.34608 7.98257 4.34712C8.16511 4.34828 8.34764 4.34884 8.53018 4.34936C8.90503 4.35043 9.27987 4.35224 9.65472 4.35455C9.65404 4.32673 9.65337 4.29891 9.65267 4.27024C9.65032 4.16625 9.64885 4.06226 9.64763 3.95825C9.64699 3.91338 9.64611 3.86852 9.64499 3.82366C9.64341 3.75887 9.64269 3.69412 9.64213 3.62932C9.64146 3.60952 9.6408 3.58971 9.64011 3.56931C9.64002 3.39825 9.70345 3.27724 9.82177 3.1547C9.95815 3.03425 10.0729 3.00726 10.2517 3.00679ZM6.33156 5.74538C6.31727 5.76209 6.30297 5.77881 6.28825 5.79604C6.19814 5.92681 6.19201 6.04828 6.19284 6.20343C6.19272 6.23746 6.19272 6.23746 6.19259 6.27218C6.19238 6.3486 6.19253 6.425 6.19268 6.50142C6.19261 6.5566 6.19251 6.61178 6.19239 6.66697C6.19212 6.81891 6.19218 6.97086 6.19229 7.12281C6.19235 7.28656 6.19212 7.45031 6.19192 7.61407C6.1916 7.93499 6.19155 8.25592 6.19161 8.57685C6.19166 8.83763 6.19161 9.0984 6.1915 9.35919C6.19149 9.39663 6.19147 9.43408 6.19145 9.47153C6.19143 9.52795 6.19141 9.58438 6.19138 9.64081C6.19117 10.1655 6.19106 10.6903 6.19116 11.215C6.19117 11.2348 6.19117 11.2546 6.19117 11.275C6.1912 11.3753 6.19122 11.4756 6.19124 11.5759C6.19124 11.5958 6.19125 11.6157 6.19125 11.6362C6.19126 11.6765 6.19127 11.7168 6.19128 11.7571C6.19142 12.3839 6.19121 13.0108 6.19074 13.6376C6.1902 14.3417 6.18993 15.0457 6.19003 15.7498C6.19004 15.8248 6.19005 15.8999 6.19006 15.9749C6.19006 15.9934 6.19006 16.0119 6.19007 16.0309C6.1901 16.3101 6.18992 16.5892 6.18965 16.8683C6.18934 17.1858 6.18931 17.5032 6.18962 17.8206C6.18977 17.9826 6.1898 18.1446 6.18949 18.3067C6.18921 18.4549 6.18929 18.6031 6.18965 18.7514C6.18972 18.8051 6.18966 18.8588 6.18945 18.9125C6.18919 18.9854 6.18941 19.0582 6.18974 19.1311C6.18956 19.152 6.18937 19.173 6.18917 19.1946C6.19115 19.4017 6.2586 19.5467 6.40569 19.6972C6.56213 19.8075 6.68799 19.8293 6.87642 19.8295C6.89539 19.8296 6.91436 19.8297 6.93391 19.8297C6.99783 19.8299 7.06175 19.8299 7.12567 19.8299C7.17182 19.83 7.21798 19.8301 7.26413 19.8302C7.39124 19.8304 7.51835 19.8305 7.64546 19.8306C7.78244 19.8307 7.91943 19.8309 8.05641 19.8312C8.38738 19.8317 8.71834 19.8319 9.0493 19.8322C9.20512 19.8323 9.36095 19.8324 9.51677 19.8325C10.0347 19.833 10.5527 19.8334 11.0706 19.8335C11.205 19.8336 11.3395 19.8336 11.4739 19.8337C11.524 19.8337 11.524 19.8337 11.5752 19.8337C12.1165 19.8339 12.6578 19.8346 13.1991 19.8354C13.7547 19.8363 14.3104 19.8368 14.866 19.8368C15.178 19.8369 15.49 19.8371 15.802 19.8378C16.0678 19.8383 16.3335 19.8385 16.5992 19.8383C16.7348 19.8382 16.8703 19.8382 17.0059 19.8387C17.1301 19.8392 17.2542 19.8392 17.3784 19.8388C17.4233 19.8387 17.4681 19.8388 17.5129 19.8391C17.9066 19.8465 17.9066 19.8465 18.2471 19.6718C18.3959 19.514 18.4296 19.3774 18.4286 19.1626C18.4287 19.1285 18.4287 19.1285 18.4288 19.0936C18.4291 19.0169 18.4289 18.9403 18.4288 18.8636C18.4289 18.8082 18.429 18.7528 18.4292 18.6975C18.4295 18.545 18.4295 18.3925 18.4294 18.24C18.4294 18.0757 18.4297 17.9113 18.4299 17.747C18.4304 17.4249 18.4305 17.1029 18.4305 16.7808C18.4306 16.5191 18.4307 16.2573 18.4308 15.9956C18.4309 15.9203 18.4309 15.845 18.431 15.7697C18.431 15.751 18.431 15.7322 18.431 15.7129C18.4313 15.1863 18.4315 14.6596 18.4315 14.1329C18.4315 14.1131 18.4315 14.0932 18.4315 14.0727C18.4315 13.9721 18.4315 13.8714 18.4315 13.7707C18.4315 13.7507 18.4315 13.7307 18.4315 13.7101C18.4315 13.6697 18.4315 13.6293 18.4315 13.5889C18.4314 12.9598 18.4318 12.3307 18.4325 11.7016C18.4333 10.995 18.4338 10.2884 18.4337 9.58175C18.4337 9.50642 18.4337 9.43108 18.4337 9.35575C18.4337 9.3372 18.4337 9.31865 18.4337 9.29954C18.4337 9.00091 18.434 8.70229 18.4345 8.40366C18.4349 8.10358 18.435 7.8035 18.4346 7.50342C18.4345 7.34082 18.4345 7.17822 18.4349 7.01563C18.4353 6.86683 18.4352 6.71804 18.4348 6.56924C18.4347 6.51536 18.4348 6.46148 18.4351 6.4076C18.4355 6.33443 18.4352 6.26128 18.4348 6.18811C18.435 6.16713 18.4353 6.14616 18.4355 6.12455C18.4334 5.95653 18.3864 5.81792 18.269 5.69481C18.2442 5.67756 18.2442 5.67756 18.2189 5.65996C18.2024 5.64806 18.186 5.63616 18.1691 5.6239C18.0041 5.5317 17.8498 5.5336 17.6656 5.53484C17.6364 5.53484 17.6072 5.53483 17.5772 5.53482C17.4809 5.53486 17.3846 5.53526 17.2883 5.53566C17.2215 5.53576 17.1547 5.53583 17.0878 5.53588C16.93 5.53606 16.7722 5.53647 16.6144 5.53699C16.4347 5.53756 16.255 5.53785 16.0753 5.5381C15.7057 5.53864 15.3362 5.53955 14.9666 5.5407C14.9662 5.56934 14.9662 5.56934 14.9659 5.59856C14.9645 5.68619 14.9623 5.77379 14.9602 5.86141C14.9598 5.89144 14.9594 5.92148 14.9591 5.95242C14.9538 6.14078 14.9257 6.27727 14.8377 6.44321C14.8292 6.46873 14.8207 6.49426 14.8119 6.52056C14.7716 6.54635 14.7716 6.54635 14.7088 6.57214C14.669 6.59176 14.669 6.59176 14.6284 6.61177C14.4524 6.67689 14.2603 6.66048 14.0752 6.65991C14.0318 6.66006 13.9884 6.66024 13.945 6.66045C13.8276 6.66091 13.7102 6.66088 13.5928 6.66073C13.4946 6.66065 13.3964 6.66081 13.2982 6.66097C13.0666 6.66133 12.835 6.66129 12.6033 6.66099C12.3646 6.6607 12.1259 6.66106 11.8872 6.66175C11.682 6.66232 11.4768 6.6625 11.2715 6.66234C11.1491 6.66226 11.0266 6.66232 10.9042 6.66276C10.789 6.66316 10.6739 6.66306 10.5588 6.66257C10.5166 6.66248 10.4744 6.66256 10.4323 6.66283C9.98765 6.66546 9.98765 6.66546 9.82229 6.50994C9.70582 6.3806 9.6745 6.2627 9.66983 6.09218C9.66883 6.06002 9.66783 6.02786 9.6668 5.99472C9.66561 5.94469 9.66561 5.94469 9.66439 5.89364C9.66339 5.85979 9.66239 5.82593 9.66136 5.79105C9.65894 5.70761 9.65673 5.62416 9.65472 5.5407C9.26492 5.53829 8.87512 5.53647 8.48532 5.53536C8.30431 5.53482 8.12331 5.5341 7.94231 5.53292C7.76759 5.53178 7.59288 5.53118 7.41816 5.53091C7.35154 5.53072 7.28492 5.53035 7.2183 5.52979C7.12491 5.52904 7.03153 5.52894 6.93813 5.52899C6.91066 5.52862 6.88319 5.52825 6.85489 5.52787C6.64085 5.52905 6.47229 5.57536 6.33156 5.74538Z" fill="#DE3A25"/>
<path d="M12.7182 16.9859C12.7361 16.9858 12.7541 16.9857 12.7725 16.9856C12.8328 16.9853 12.893 16.9852 12.9532 16.9851C12.9963 16.9849 13.0394 16.9848 13.0825 16.9846C13.2243 16.9841 13.366 16.9838 13.5078 16.9835C13.5566 16.9834 13.6054 16.9833 13.6542 16.9832C13.8835 16.9827 14.1128 16.9824 14.3421 16.9821C14.6068 16.9819 14.8714 16.9812 15.136 16.9802C15.3406 16.9794 15.5452 16.979 15.7498 16.9789C15.8719 16.9789 15.9941 16.9786 16.1162 16.978C16.2312 16.9774 16.3462 16.9773 16.4612 16.9775C16.5033 16.9775 16.5454 16.9774 16.5876 16.977C17.0319 16.9735 17.0319 16.9735 17.2126 17.1437C17.3159 17.2973 17.345 17.4249 17.3133 17.6085C17.2697 17.7464 17.2049 17.8396 17.0812 17.918C16.9752 17.9698 16.8883 17.9761 16.7708 17.9764C16.7528 17.9765 16.7348 17.9767 16.7163 17.9768C16.6563 17.9771 16.5962 17.9771 16.5362 17.977C16.493 17.9772 16.4499 17.9774 16.4068 17.9776C16.2897 17.978 16.1727 17.9781 16.0556 17.9782C15.9825 17.9782 15.9093 17.9783 15.8361 17.9784C15.5808 17.9789 15.3254 17.9791 15.07 17.9791C14.8321 17.9791 14.5943 17.9796 14.3564 17.9804C14.1521 17.9811 13.9477 17.9814 13.7433 17.9813C13.6213 17.9813 13.4994 17.9815 13.3774 17.982C13.2626 17.9825 13.1478 17.9825 13.033 17.9821C12.991 17.9821 12.949 17.9822 12.9069 17.9825C12.4602 17.9856 12.4602 17.9856 12.297 17.8282C12.1784 17.6944 12.1714 17.5764 12.173 17.4044C12.1864 17.2849 12.2298 17.2061 12.3108 17.1186C12.4489 17.0109 12.5457 16.9865 12.7182 16.9859Z" fill="#DE3824"/>
<path d="M12.9945 13.1055C13.0372 13.1054 13.0798 13.1052 13.1225 13.105C13.2376 13.1045 13.3527 13.1048 13.4678 13.1053C13.5886 13.1058 13.7094 13.1055 13.8302 13.1054C14.033 13.1053 14.2357 13.1057 14.4385 13.1064C14.6726 13.1073 14.9067 13.1072 15.1408 13.1068C15.3665 13.1064 15.5921 13.1066 15.8178 13.107C15.9137 13.1072 16.0095 13.1072 16.1053 13.107C16.2182 13.1068 16.3311 13.1071 16.444 13.1078C16.4854 13.108 16.5267 13.108 16.568 13.1078C17.0004 13.1061 17.0004 13.1061 17.1857 13.2727C17.1974 13.2878 17.2092 13.3029 17.2213 13.3184C17.2335 13.3337 17.2457 13.3489 17.2582 13.3646C17.3432 13.484 17.3259 13.6255 17.3131 13.7665C17.2692 13.9061 17.1704 13.9926 17.0553 14.0759C16.9654 14.1059 16.8952 14.1051 16.8003 14.1053C16.773 14.1054 16.773 14.1054 16.7452 14.1055C16.6842 14.1058 16.6231 14.1058 16.5621 14.1058C16.5184 14.106 16.4747 14.1061 16.4309 14.1062C16.3121 14.1066 16.1932 14.1067 16.0744 14.1068C16.0001 14.1069 15.9259 14.107 15.8516 14.1071C15.6193 14.1075 15.3871 14.1077 15.1548 14.1078C14.8866 14.108 14.6184 14.1084 14.3503 14.1092C14.143 14.1097 13.9357 14.11 13.7285 14.11C13.6047 14.11 13.4809 14.1102 13.3571 14.1106C13.2406 14.1111 13.1241 14.1111 13.0077 14.1109C12.965 14.1109 12.9222 14.111 12.8795 14.1112C12.8211 14.1116 12.7628 14.1114 12.7044 14.1112C12.6717 14.1112 12.6391 14.1112 12.6054 14.1113C12.4657 14.0961 12.3652 14.0427 12.2768 13.9341C12.2641 13.9189 12.2515 13.9038 12.2384 13.8881C12.1514 13.7634 12.1663 13.6018 12.1817 13.457C12.2234 13.3269 12.2999 13.2479 12.418 13.1816C12.6027 13.0937 12.7948 13.104 12.9945 13.1055Z" fill="#DE3924"/>
<path d="M12.9945 9.23761C13.0371 9.23747 13.0798 9.23729 13.1224 9.23705C13.2375 9.23657 13.3526 9.2369 13.4678 9.23741C13.5886 9.23783 13.7094 9.2376 13.8302 9.23747C14.0329 9.23736 14.2357 9.23777 14.4384 9.23849C14.6725 9.23931 14.9066 9.23931 15.1407 9.23887C15.3664 9.23846 15.5921 9.23863 15.8178 9.23907C15.9136 9.23925 16.0095 9.23922 16.1053 9.23903C16.2182 9.23883 16.3311 9.23915 16.444 9.23985C16.4853 9.24003 16.5266 9.24003 16.568 9.23985C16.8065 9.2389 16.9982 9.23845 17.1856 9.40386C17.1974 9.41872 17.2091 9.43358 17.2212 9.44889C17.2334 9.46381 17.2456 9.47873 17.2582 9.49411C17.3383 9.61365 17.3296 9.76089 17.3131 9.89853C17.2569 10.0449 17.1671 10.1331 17.0294 10.208C16.9402 10.2377 16.8709 10.2372 16.7767 10.2375C16.7588 10.2376 16.7409 10.2377 16.7224 10.2378C16.6622 10.2381 16.602 10.2382 16.5418 10.2383C16.4987 10.2385 16.4555 10.2386 16.4124 10.2388C16.2707 10.2394 16.1289 10.2396 15.9872 10.2399C15.9384 10.24 15.8896 10.2401 15.8408 10.2402C15.6115 10.2407 15.3821 10.2411 15.1528 10.2413C14.8882 10.2415 14.6236 10.2422 14.359 10.2433C14.1544 10.244 13.9498 10.2444 13.7452 10.2445C13.623 10.2446 13.5009 10.2448 13.3787 10.2454C13.2637 10.246 13.1487 10.2461 13.0338 10.2459C12.9916 10.2459 12.9495 10.246 12.9074 10.2464C12.4601 10.2499 12.4601 10.2499 12.2968 10.0924C12.1783 9.95872 12.1707 9.84048 12.1732 9.66847C12.1865 9.54424 12.2248 9.47191 12.3106 9.38281C12.5188 9.22824 12.747 9.23564 12.9945 9.23761Z" fill="#DE3924"/>
<path d="M11.264 11.985C11.4025 12.0653 11.486 12.1694 11.537 12.3224C11.5431 12.3735 11.5431 12.3735 11.545 12.4304C11.5465 12.458 11.5465 12.458 11.548 12.4863C11.5148 12.6923 11.3803 12.8292 11.238 12.9699C11.2184 12.9897 11.1988 13.0095 11.1786 13.0299C11.1142 13.0948 11.0493 13.1593 10.9845 13.2238C10.9394 13.269 10.8943 13.3142 10.8492 13.3594C10.7549 13.4539 10.6603 13.5482 10.5656 13.6424C10.4444 13.763 10.3237 13.8841 10.203 14.0054C10.1101 14.0987 10.0169 14.1918 9.92357 14.2848C9.87895 14.3294 9.8344 14.374 9.78994 14.4187C9.72774 14.4812 9.66521 14.5433 9.6026 14.6053C9.58436 14.6238 9.56612 14.6422 9.54733 14.6612C9.41324 14.7931 9.28487 14.8855 9.08893 14.8881C9.06901 14.8889 9.0491 14.8897 9.02859 14.8905C8.81946 14.8449 8.66549 14.6711 8.52033 14.5248C8.49905 14.5036 8.47778 14.4824 8.45586 14.4605C8.41119 14.4159 8.36662 14.3712 8.32214 14.3264C8.25414 14.258 8.18573 14.19 8.11727 14.122C8.07378 14.0785 8.03032 14.0349 7.98688 13.9913C7.96649 13.9711 7.94611 13.9509 7.9251 13.93C7.78923 13.7924 7.68389 13.674 7.68359 13.4715C7.68845 13.3157 7.72433 13.2214 7.8366 13.1089C7.94279 13.0156 8.0253 12.9885 8.16386 12.9848C8.18709 12.9838 8.21033 12.9828 8.23426 12.9818C8.49035 13.0172 8.64645 13.2101 8.81656 13.3861C8.84293 13.4129 8.86932 13.4398 8.89573 13.4666C8.95987 13.5319 9.02368 13.5975 9.08731 13.6633C9.2541 13.5275 9.40346 13.3752 9.55437 13.2224C9.60233 13.1738 9.6504 13.1254 9.69849 13.077C9.83512 12.9395 9.97164 12.8019 10.1079 12.6641C10.1915 12.5794 10.2754 12.495 10.3593 12.4107C10.3911 12.3787 10.4229 12.3466 10.4546 12.3144C10.4989 12.2694 10.5434 12.2247 10.588 12.18C10.6009 12.1668 10.6138 12.1536 10.6271 12.1399C10.8036 11.9644 11.0241 11.8941 11.264 11.985Z" fill="#DE3924"/>
<path d="M11.3308 8.14511C11.442 8.2386 11.523 8.33581 11.5454 8.48294C11.554 8.64969 11.5025 8.78221 11.3971 8.91279C11.3551 8.95734 11.312 9.00009 11.2678 9.04247C11.252 9.05802 11.2363 9.07358 11.22 9.0896C11.1702 9.13871 11.12 9.18745 11.0698 9.23617C11.0194 9.28542 10.9691 9.33474 10.9189 9.38413C10.8878 9.4147 10.8566 9.44518 10.8252 9.47556C10.7626 9.5367 10.7091 9.59337 10.6604 9.66647C10.6434 9.66647 10.6264 9.66647 10.6088 9.66647C10.5995 9.68838 10.5995 9.68838 10.5899 9.71073C10.5508 9.78121 10.5042 9.82944 10.4473 9.88662C10.4246 9.90959 10.4019 9.93256 10.3785 9.95623C10.3536 9.9811 10.3287 10.006 10.3038 10.0308C10.2783 10.0565 10.2527 10.0822 10.2271 10.1078C10.1735 10.1616 10.1199 10.2153 10.0661 10.2689C9.99745 10.3374 9.92909 10.4062 9.8608 10.4751C9.80807 10.5282 9.75515 10.5811 9.70219 10.634C9.67692 10.6593 9.65171 10.6847 9.62657 10.7101C9.59128 10.7457 9.55572 10.781 9.52015 10.8163C9.50004 10.8364 9.47993 10.8566 9.4592 10.8773C9.34823 10.9711 9.24574 11.0183 9.10035 11.017C9.07722 11.0172 9.05408 11.0174 9.03025 11.0176C8.82675 10.9885 8.70386 10.8413 8.5658 10.7022C8.54331 10.6798 8.52082 10.6574 8.49764 10.6343C8.45024 10.587 8.40293 10.5395 8.35572 10.492C8.28352 10.4194 8.21092 10.3472 8.13827 10.275C8.09219 10.2289 8.04614 10.1827 8.00012 10.1366C7.97844 10.115 7.95677 10.0935 7.93443 10.0713C7.79613 9.93137 7.68455 9.81153 7.68213 9.60523C7.68649 9.45938 7.72615 9.36189 7.82395 9.2539C7.93889 9.16425 8.0317 9.12124 8.1769 9.11691C8.20816 9.11547 8.20816 9.11547 8.24005 9.11399C8.49259 9.15154 8.64853 9.34422 8.81671 9.5182C8.84307 9.54509 8.86946 9.57195 8.89588 9.59879C8.96002 9.66405 9.02383 9.72964 9.08746 9.7954C9.25431 9.65947 9.40407 9.5072 9.55531 9.35449C9.60338 9.30597 9.65154 9.25754 9.69973 9.20914C9.83662 9.07163 9.97336 8.93397 10.11 8.79619C10.1938 8.71164 10.2778 8.62721 10.3619 8.54286C10.3938 8.5108 10.4256 8.4787 10.4574 8.44654C10.5019 8.40162 10.5464 8.35687 10.5911 8.31214C10.6041 8.29892 10.6171 8.2857 10.6304 8.27207C10.8391 8.06398 11.0598 7.99952 11.3308 8.14511Z" fill="#DE3924"/>
<path d="M11.2474 15.8599C11.3904 15.9397 11.4811 16.0359 11.5375 16.1903C11.5633 16.3597 11.5269 16.4843 11.4344 16.6287C11.3503 16.7269 11.2586 16.8171 11.1664 16.9076C11.1399 16.934 11.1134 16.9604 11.0868 16.9869C11.0314 17.0421 10.9758 17.0972 10.9201 17.1521C10.8492 17.222 10.7786 17.2921 10.7081 17.3624C10.6402 17.4301 10.5721 17.4976 10.5041 17.5651C10.4913 17.5777 10.4786 17.5904 10.4655 17.6034C10.3342 17.7336 10.2018 17.8607 10.0615 17.9813C9.99299 18.0414 9.9295 18.106 9.86606 18.1714C9.83924 18.1987 9.81241 18.2259 9.78558 18.2532C9.74431 18.2953 9.7031 18.3374 9.66202 18.3796C9.6217 18.4211 9.58112 18.4622 9.54051 18.5034C9.52842 18.516 9.51633 18.5285 9.50387 18.5415C9.40434 18.6418 9.30638 18.7081 9.16521 18.7285C9.12691 18.7286 9.12691 18.7286 9.08785 18.7286C9.06232 18.7291 9.03679 18.7296 9.01049 18.7301C8.83999 18.7019 8.71894 18.5649 8.59792 18.4498C8.58062 18.4334 8.56333 18.4171 8.54551 18.4002C8.39594 18.2577 8.24787 18.1136 8.10092 17.9684C8.07576 17.9436 8.05054 17.9188 8.02525 17.8941C7.71444 17.5901 7.71444 17.5901 7.68262 17.4054C7.68618 17.2423 7.69496 17.1228 7.81265 16.9994C7.92121 16.8993 8.01716 16.836 8.16953 16.8343C8.40891 16.8482 8.53767 16.9737 8.69784 17.1396C8.82324 17.2673 8.94967 17.3912 9.08785 17.5054C9.17537 17.4675 9.23199 17.419 9.29884 17.3514C9.31985 17.3303 9.34086 17.3092 9.36251 17.2875C9.39627 17.2532 9.39627 17.2532 9.43072 17.2182C9.46649 17.1822 9.50226 17.1463 9.53803 17.1103C9.58813 17.0599 9.63811 17.0093 9.68809 16.9588C9.77507 16.8708 9.86216 16.783 9.94935 16.6952C9.99569 16.6486 10.042 16.6019 10.0882 16.5551C10.2007 16.4416 10.3148 16.332 10.4366 16.2284C10.5284 16.1484 10.6101 16.058 10.694 15.9699C10.8666 15.8138 11.0312 15.7914 11.2474 15.8599Z" fill="#DE3924"/>
</svg>
